<?xml version="1.0" encoding="UTF-8"?>
<svg id="Calque_1" data-name="Calque 1" xmlns="http://www.w3.org/2000/svg" viewBox="0 0 554.14 518.81">
  <defs>
    <style>
      .cls-1 {
        stroke-width: 0px;
      }
    </style>
  </defs>
  <path class="cls-1" d="M261.88,252.29c-2.6-1.48-6.08-1.25-8.47.55s-3.57,5.07-2.88,7.99c1.15,4.79,7.66,7.36,11.72,4.57s3.94-9.89-.27-12.46"/>
  <g>
    <g>
      <path class="cls-1" d="M306.34,221.38l-.46-1.22c.15.42.3.83.46,1.22Z"/>
      <path class="cls-1" d="M191.3,309.21l44.51,73.91-32.93-.04c-25.48-.04-40.86-28.21-27.1-49.66l15.52-24.21Z"/>
      <path class="cls-1" d="M355.6,299.83l-47.79,83.38-31.39-.04-29.98-.04-48.34-84.52,12.15-18.95c.26-.51.71-1.2,1.2-1.86.5-.65,1.04-1.27,1.48-1.65,4.28-3.71,12.19-4.4,17.52-2.77,6.42,1.98,11.62,6.59,17.02,10.6,6.03,4.48,12.74,8.39,20.17,9.56,7.42,1.16,15.68-.86,20.53-6.6s5-15.43-.72-20.29c-2.21-1.87-5.02-2.92-7.26-4.74-2.25-1.82-3.9-5-2.61-7.59,1.39-2.79,5.41-3.18,8.23-1.87,2.83,1.32,4.9,3.81,7.33,5.77,2.43,1.95,5.73,3.44,8.62,2.28,4.59-1.85,4.46-8.8,1.46-12.75-2.99-3.94-7.69-6.25-10.98-9.95-4.27-4.8-5.76-11.91-3.79-18.01,1.97-6.08,8.21-13.07,14.44-14.51.02,4.67.86,9.31,2.53,13.69l.45,1.19c.15.42.3.83.46,1.22l.02.03c.35.84.72,1.59,1.11,2.21l35.31,56.09,12.83,20.12Z"/>
      <path class="cls-1" d="M349.96,383.27l-29.93-.04,41.28-74.44,15.88,24.89c13.69,21.48-1.76,49.62-27.23,49.59Z"/>
      <path class="cls-1" d="M306.35,221.42s0,0,0,0c0-.01-.01-.03-.02-.04l.02.04Z"/>
    </g>
    <path class="cls-1" d="M316.35,140.73c-.51-6.84-5.95-12.42-12.35-12.44-20.15-.05-40.3-.05-60.46,0-6.34.01-11.6,5.17-12.43,11.95-.81,6.62,3.27,13.08,9.38,14.79,1.04.29,2.12.42,3.37.66v2.48c0,16.98-.08,33.95.04,50.93.04,5.15-1.06,9.77-3.29,14.19l-17.74,31.5c4.27-5.49,13.88-7.42,15.51-10.43l12.15-22.53s.06-.01.1-.02c.04-.12.07-.24.11-.36v-.02s0,0,0,0c1.06-3.39,1.59-6.94,1.58-10.67-.03-17.65-.01-35.29-.01-52.94v-2.24h42.79c0,.78,0,1.54,0,2.3,0,10.05.02,32.47.02,42.53,3.27-4.12,5.9-4.39,8.06-5.37l.38-12.18c0-9.51,0-21.26,0-25.28v-1.95c.8-.11,1.36-.16,1.92-.26,6.8-1.2,11.41-7.41,10.87-14.62ZM303.43,146.44c-5.75.04-11.5.02-17.24.02-4.15,0-8.31,0-12.46,0h0c-9.85-.01-19.69,0-29.54-.02-3.45,0-5.59-3.25-4.26-6.41.71-1.69,1.98-2.63,3.73-2.72,1.02-.05,2.05-.02,3.07-.02,18.55,0,37.11,0,55.66,0,.34,0,.68,0,1.02,0,2.63.08,4.53,2.06,4.48,4.66-.05,2.53-1.91,4.46-4.47,4.48Z"/>
  </g>
  <path class="cls-1" d="M280.47,225.02c2.74-11.05-.2-15.94-2.09-17.14-.13-.09,0,0-.12-.09-2.76-2.12-5.04-2.6-7.04-2.14-2.21.51-3.95,2.21-4.74,4.34-1.13,3-.66,5.58.79,7.9,3.14,3.83,9.47,2.02,13.21,7.14Z"/>
  <path class="cls-1" d="M390.08,228.98c-1.92-3.3-5.26-5.27-8.96-5.27h-60.16l5.28,10.49h54.74c.12.17.26.59.03.99l-103.94,181.73-103.94-181.73c-.23-.4-.08-.82.03-.99h50.53l6.51-10.49h-57.18c-3.69,0-7.04,1.97-8.96,5.27-2.04,3.52-2.05,7.89-.04,11.41l104.05,181.92c1.91,3.34,5.28,5.34,9,5.34s7.08-2,9-5.34l104.05-181.92c2.02-3.52,2-7.9-.04-11.41Z"/>
</svg>