<?xml version="1.0" encoding="UTF-8"?>
<svg id="Calque_1" data-name="Calque 1" xmlns="http://www.w3.org/2000/svg" viewBox="0 0 554.14 518.81">
  <defs>
    <style>
      .cls-1 {
        fill: none;
      }

      .cls-1, .cls-2 {
        stroke-width: 0px;
      }

      .cls-2 {
        fill: #fff;
      }
    </style>
  </defs>
  <path class="cls-2" d="M261.88,252.29c-2.6-1.48-6.08-1.25-8.47.55s-3.57,5.07-2.88,7.99c1.15,4.79,7.66,7.36,11.72,4.57s3.94-9.89-.27-12.46"/>
  <g>
    <path class="cls-1" d="M307.9,141.96c.05-2.59-1.85-4.57-4.48-4.66-.34-.01-.68,0-1.02,0-18.55,0-37.11,0-55.66,0-1.02,0-2.05-.04-3.07.02-1.75.09-3.02,1.03-3.73,2.72-1.33,3.16.81,6.4,4.26,6.41,9.85.03,19.69,0,29.54,0h0c4.15.01,8.31.01,12.46.01,5.75,0,11.5.02,17.24-.02,2.55-.02,4.42-1.95,4.47-4.48Z"/>
    <g>
      <path class="cls-1" d="M306.34,221.38l-.46-1.22c.15.42.3.83.46,1.22Z"/>
      <path class="cls-2" d="M306.35,221.42s0,0,0,0c0-.01-.01-.03-.02-.04l.02.04Z"/>
    </g>
  </g>
  <path class="cls-2" d="M280.47,225.02c2.74-11.05-.2-15.94-2.09-17.14-.13-.09,0,0-.12-.09-2.76-2.12-5.04-2.6-7.04-2.14-2.21.51-3.95,2.21-4.74,4.34-1.13,3-.66,5.58.79,7.9,3.14,3.83,9.47,2.02,13.21,7.14Z"/>
  <path class="cls-2" d="M390.08,228.98c-1.92-3.3-5.26-5.27-8.96-5.27h-60.16l5.28,10.49h54.74c.12.17.26.59.03.99l-103.94,181.73-103.94-181.73c-.23-.4-.08-.82.03-.99h50.53l6.51-10.49h-57.18c-3.69,0-7.04,1.97-8.96,5.27-2.04,3.52-2.05,7.89-.04,11.41l104.05,181.92c1.91,3.34,5.28,5.34,9,5.34s7.08-2,9-5.34l104.05-181.92c2.02-3.52,2-7.9-.04-11.41Z"/>
</svg>